G04 EAGLE Gerber RS-274X export*
G75*
%MOMM*%
%FSLAX34Y34*%
%LPD*%
%INSoldermask Bottom*%
%IPPOS*%
%AMOC8*
5,1,8,0,0,1.08239X$1,22.5*%
G01*
%ADD10C,2.184400*%
%ADD11P,1.649562X8X202.500000*%
%ADD12P,1.649562X8X292.500000*%
%ADD13C,1.903200*%
%ADD14C,1.711200*%
%ADD15C,1.524000*%
%ADD16C,1.727200*%
%ADD17P,1.649562X8X22.500000*%
%ADD18P,1.649562X8X112.500000*%
%ADD19C,1.524000*%
%ADD20C,1.711200*%


D10*
X721106Y51054D02*
X701294Y51054D01*
X701294Y101092D02*
X721106Y101092D01*
D11*
X171450Y88900D03*
X146050Y88900D03*
X171450Y222250D03*
X146050Y222250D03*
D12*
X374650Y127000D03*
X374650Y101600D03*
D13*
X431800Y250825D03*
X508000Y250825D03*
D14*
X508000Y212725D03*
X431800Y212725D03*
X504825Y155575D03*
X504825Y79375D03*
D10*
X701294Y184404D02*
X721106Y184404D01*
X721106Y234442D02*
X701294Y234442D01*
D15*
X317500Y177800D03*
X292100Y177800D03*
X292100Y101600D03*
X317500Y101600D03*
X266700Y177800D03*
X241300Y177800D03*
X266700Y101600D03*
X241300Y101600D03*
D16*
X538480Y247650D02*
X553720Y247650D01*
X553720Y171450D02*
X538480Y171450D01*
X538480Y120650D02*
X553720Y120650D01*
X553720Y69850D02*
X538480Y69850D01*
X614680Y69850D02*
X629920Y69850D01*
X629920Y120650D02*
X614680Y120650D01*
X614680Y171450D02*
X629920Y171450D01*
X629920Y247650D02*
X614680Y247650D01*
D11*
X196850Y168275D03*
X120650Y168275D03*
D17*
X149225Y25400D03*
X225425Y25400D03*
X425450Y25400D03*
X501650Y25400D03*
D11*
X406400Y203200D03*
X330200Y203200D03*
D18*
X454025Y79375D03*
X454025Y155575D03*
D11*
X196850Y142875D03*
X120650Y142875D03*
D12*
X428625Y155575D03*
X428625Y79375D03*
D11*
X292100Y247650D03*
X215900Y247650D03*
X508000Y187325D03*
X431800Y187325D03*
D12*
X479425Y155575D03*
X479425Y79375D03*
D11*
X292100Y209550D03*
X215900Y209550D03*
D17*
X260350Y50800D03*
X336550Y50800D03*
X425450Y50800D03*
X501650Y50800D03*
D19*
X393700Y241046D02*
X393700Y254254D01*
X342900Y254254D02*
X342900Y241046D01*
X368300Y241046D02*
X368300Y254254D01*
D20*
X703660Y101748D02*
X718740Y101748D01*
X718740Y76334D02*
X703660Y76334D01*
X703660Y235098D02*
X718740Y235098D01*
X718740Y209684D02*
X703660Y209684D01*
X77390Y120502D02*
X62310Y120502D01*
X62310Y145916D02*
X77390Y145916D01*
X77390Y171316D02*
X62310Y171316D01*
X62310Y196716D02*
X77390Y196716D01*
X77390Y222116D02*
X62310Y222116D01*
X62310Y247516D02*
X77390Y247516D01*
X77390Y37952D02*
X62310Y37952D01*
X62310Y63366D02*
X77390Y63366D01*
M02*
