M48
;GenerationSoftware,Autodesk,EAGLE,9.6.2*%
;CreationDate,2024-01-10T11:13:34Z*%
FMAT,2
ICI,OFF
METRIC,TZ,000.000
T5C0.813
T4C1.000
T3C1.016
T2C1.100
T1C1.321
%
G90
M71
T1
X71120Y5105
X71120Y10109
X71120Y18440
X71120Y23444
T2
X43180Y25082
X50800Y25082
T3
X54610Y24765
X54610Y17145
X54610Y12065
X54610Y6985
X62230Y6985
X62230Y12065
X62230Y17145
X62230Y24765
T4
X6985Y14592
X6985Y17132
X6985Y19672
X6985Y22212
X6985Y24752
X6985Y3795
X50800Y21273
X43180Y21273
X50482Y15557
X50482Y7937
X6985Y6337
X71120Y23510
X71120Y10175
X71120Y7633
X71120Y20968
X6985Y12050
T5
X17145Y8890
X14605Y8890
X17145Y22225
X14605Y22225
X37465Y12700
X37465Y10160
X31750Y17780
X29210Y17780
X29210Y10160
X31750Y10160
X26670Y17780
X24130Y17780
X26670Y10160
X24130Y10160
X19685Y16828
X12065Y16828
X14922Y2540
X22542Y2540
X50800Y18733
X43180Y18733
X47942Y15557
X47942Y7937
X29210Y20955
X21590Y20955
X50165Y2540
X33655Y5080
X42545Y5080
X50165Y5080
X39370Y24765
X34290Y24765
X36830Y24765
X40640Y20320
X33020Y20320
X42545Y2540
X45402Y7937
X45402Y15557
X19685Y14287
X12065Y14287
X42863Y15557
X42863Y7937
X29210Y24765
X21590Y24765
X26035Y5080
M30