G04 EAGLE Gerber RS-274X export*
G75*
%MOMM*%
%FSLAX34Y34*%
%LPD*%
%INSilkscreen Top*%
%IPPOS*%
%AMOC8*
5,1,8,0,0,1.08239X$1,22.5*%
G01*
%ADD10C,0.152400*%
%ADD11C,0.254000*%
%ADD12C,0.127000*%
%ADD13R,0.508000X0.381000*%
%ADD14C,0.101600*%


D10*
X80010Y57150D02*
X123190Y57150D01*
X123190Y19050D02*
X80010Y19050D01*
X125730Y21590D02*
X125730Y54610D01*
X77470Y54610D02*
X77470Y21590D01*
X123190Y57150D02*
X123290Y57148D01*
X123389Y57142D01*
X123489Y57132D01*
X123587Y57119D01*
X123686Y57101D01*
X123783Y57080D01*
X123879Y57055D01*
X123975Y57026D01*
X124069Y56993D01*
X124162Y56957D01*
X124253Y56917D01*
X124343Y56873D01*
X124431Y56826D01*
X124517Y56776D01*
X124601Y56722D01*
X124683Y56665D01*
X124762Y56605D01*
X124840Y56541D01*
X124914Y56475D01*
X124986Y56406D01*
X125055Y56334D01*
X125121Y56260D01*
X125185Y56182D01*
X125245Y56103D01*
X125302Y56021D01*
X125356Y55937D01*
X125406Y55851D01*
X125453Y55763D01*
X125497Y55673D01*
X125537Y55582D01*
X125573Y55489D01*
X125606Y55395D01*
X125635Y55299D01*
X125660Y55203D01*
X125681Y55106D01*
X125699Y55007D01*
X125712Y54909D01*
X125722Y54809D01*
X125728Y54710D01*
X125730Y54610D01*
X80010Y57150D02*
X79910Y57148D01*
X79811Y57142D01*
X79711Y57132D01*
X79613Y57119D01*
X79514Y57101D01*
X79417Y57080D01*
X79321Y57055D01*
X79225Y57026D01*
X79131Y56993D01*
X79038Y56957D01*
X78947Y56917D01*
X78857Y56873D01*
X78769Y56826D01*
X78683Y56776D01*
X78599Y56722D01*
X78517Y56665D01*
X78438Y56605D01*
X78360Y56541D01*
X78286Y56475D01*
X78214Y56406D01*
X78145Y56334D01*
X78079Y56260D01*
X78015Y56182D01*
X77955Y56103D01*
X77898Y56021D01*
X77844Y55937D01*
X77794Y55851D01*
X77747Y55763D01*
X77703Y55673D01*
X77663Y55582D01*
X77627Y55489D01*
X77594Y55395D01*
X77565Y55299D01*
X77540Y55203D01*
X77519Y55106D01*
X77501Y55007D01*
X77488Y54909D01*
X77478Y54809D01*
X77472Y54710D01*
X77470Y54610D01*
X123190Y19050D02*
X123290Y19052D01*
X123389Y19058D01*
X123489Y19068D01*
X123587Y19081D01*
X123686Y19099D01*
X123783Y19120D01*
X123879Y19145D01*
X123975Y19174D01*
X124069Y19207D01*
X124162Y19243D01*
X124253Y19283D01*
X124343Y19327D01*
X124431Y19374D01*
X124517Y19424D01*
X124601Y19478D01*
X124683Y19535D01*
X124762Y19595D01*
X124840Y19659D01*
X124914Y19725D01*
X124986Y19794D01*
X125055Y19866D01*
X125121Y19940D01*
X125185Y20018D01*
X125245Y20097D01*
X125302Y20179D01*
X125356Y20263D01*
X125406Y20349D01*
X125453Y20437D01*
X125497Y20527D01*
X125537Y20618D01*
X125573Y20711D01*
X125606Y20805D01*
X125635Y20901D01*
X125660Y20997D01*
X125681Y21094D01*
X125699Y21193D01*
X125712Y21291D01*
X125722Y21391D01*
X125728Y21490D01*
X125730Y21590D01*
X80010Y19050D02*
X79910Y19052D01*
X79811Y19058D01*
X79711Y19068D01*
X79613Y19081D01*
X79514Y19099D01*
X79417Y19120D01*
X79321Y19145D01*
X79225Y19174D01*
X79131Y19207D01*
X79038Y19243D01*
X78947Y19283D01*
X78857Y19327D01*
X78769Y19374D01*
X78683Y19424D01*
X78599Y19478D01*
X78517Y19535D01*
X78438Y19595D01*
X78360Y19659D01*
X78286Y19725D01*
X78214Y19794D01*
X78145Y19866D01*
X78079Y19940D01*
X78015Y20018D01*
X77955Y20097D01*
X77898Y20179D01*
X77844Y20263D01*
X77794Y20349D01*
X77747Y20437D01*
X77703Y20527D01*
X77663Y20618D01*
X77627Y20711D01*
X77594Y20805D01*
X77565Y20901D01*
X77540Y20997D01*
X77519Y21094D01*
X77501Y21193D01*
X77488Y21291D01*
X77478Y21391D01*
X77472Y21490D01*
X77470Y21590D01*
X104140Y38100D02*
X105410Y38100D01*
D11*
X104140Y38100D02*
X104140Y45720D01*
X104140Y38100D02*
X104140Y30480D01*
X99060Y38100D02*
X99060Y45720D01*
X99060Y38100D02*
X99060Y30480D01*
D10*
X99060Y38100D02*
X97790Y38100D01*
D12*
X84455Y60325D02*
X81915Y60325D01*
X81815Y60327D01*
X81716Y60333D01*
X81616Y60343D01*
X81518Y60356D01*
X81419Y60374D01*
X81322Y60395D01*
X81226Y60420D01*
X81130Y60449D01*
X81036Y60482D01*
X80943Y60518D01*
X80852Y60558D01*
X80762Y60602D01*
X80674Y60649D01*
X80588Y60699D01*
X80504Y60753D01*
X80422Y60810D01*
X80343Y60870D01*
X80265Y60934D01*
X80191Y61000D01*
X80119Y61069D01*
X80050Y61141D01*
X79984Y61215D01*
X79920Y61293D01*
X79860Y61372D01*
X79803Y61454D01*
X79749Y61538D01*
X79699Y61624D01*
X79652Y61712D01*
X79608Y61802D01*
X79568Y61893D01*
X79532Y61986D01*
X79499Y62080D01*
X79470Y62176D01*
X79445Y62272D01*
X79424Y62369D01*
X79406Y62468D01*
X79393Y62566D01*
X79383Y62666D01*
X79377Y62765D01*
X79375Y62865D01*
X79375Y69215D01*
X79377Y69315D01*
X79383Y69414D01*
X79393Y69514D01*
X79406Y69612D01*
X79424Y69711D01*
X79445Y69808D01*
X79470Y69904D01*
X79499Y70000D01*
X79532Y70094D01*
X79568Y70187D01*
X79608Y70278D01*
X79652Y70368D01*
X79699Y70456D01*
X79749Y70542D01*
X79803Y70626D01*
X79860Y70708D01*
X79920Y70787D01*
X79984Y70865D01*
X80050Y70939D01*
X80119Y71011D01*
X80191Y71080D01*
X80265Y71146D01*
X80343Y71210D01*
X80422Y71270D01*
X80504Y71327D01*
X80588Y71381D01*
X80674Y71431D01*
X80762Y71478D01*
X80852Y71522D01*
X80943Y71562D01*
X81036Y71598D01*
X81130Y71631D01*
X81226Y71660D01*
X81322Y71685D01*
X81419Y71706D01*
X81518Y71724D01*
X81616Y71737D01*
X81716Y71747D01*
X81815Y71753D01*
X81915Y71755D01*
X84455Y71755D01*
X88937Y69215D02*
X92112Y71755D01*
X92112Y60325D01*
X88937Y60325D02*
X95287Y60325D01*
D10*
X95250Y127000D02*
X82550Y127000D01*
X95250Y127000D02*
X101600Y120650D01*
X101600Y107950D01*
X95250Y101600D01*
X76200Y107950D02*
X76200Y120650D01*
X82550Y127000D01*
X76200Y107950D02*
X82550Y101600D01*
X95250Y101600D01*
X101600Y120650D02*
X107950Y127000D01*
X120650Y127000D01*
X127000Y120650D01*
X127000Y107950D01*
X120650Y101600D01*
X107950Y101600D01*
X101600Y107950D01*
D12*
X76073Y133223D02*
X76073Y144653D01*
X76073Y133223D02*
X81153Y133223D01*
X85979Y133223D02*
X91059Y133223D01*
X85979Y133223D02*
X85979Y144653D01*
X91059Y144653D01*
X89789Y139573D02*
X85979Y139573D01*
X95860Y144653D02*
X95860Y133223D01*
X95860Y144653D02*
X99035Y144653D01*
X99146Y144651D01*
X99256Y144645D01*
X99367Y144636D01*
X99477Y144622D01*
X99586Y144605D01*
X99695Y144584D01*
X99803Y144559D01*
X99910Y144530D01*
X100016Y144498D01*
X100121Y144462D01*
X100224Y144422D01*
X100326Y144379D01*
X100427Y144332D01*
X100526Y144281D01*
X100623Y144228D01*
X100717Y144171D01*
X100810Y144110D01*
X100901Y144047D01*
X100990Y143980D01*
X101076Y143910D01*
X101159Y143837D01*
X101241Y143762D01*
X101319Y143684D01*
X101394Y143602D01*
X101467Y143519D01*
X101537Y143433D01*
X101604Y143344D01*
X101667Y143253D01*
X101728Y143160D01*
X101785Y143066D01*
X101838Y142969D01*
X101889Y142870D01*
X101936Y142769D01*
X101979Y142667D01*
X102019Y142564D01*
X102055Y142459D01*
X102087Y142353D01*
X102116Y142246D01*
X102141Y142138D01*
X102162Y142029D01*
X102179Y141920D01*
X102193Y141810D01*
X102202Y141699D01*
X102208Y141589D01*
X102210Y141478D01*
X102210Y136398D01*
X102208Y136287D01*
X102202Y136177D01*
X102193Y136066D01*
X102179Y135956D01*
X102162Y135847D01*
X102141Y135738D01*
X102116Y135630D01*
X102087Y135523D01*
X102055Y135417D01*
X102019Y135312D01*
X101979Y135209D01*
X101936Y135107D01*
X101889Y135006D01*
X101838Y134907D01*
X101785Y134810D01*
X101728Y134716D01*
X101667Y134623D01*
X101604Y134532D01*
X101537Y134443D01*
X101467Y134357D01*
X101394Y134274D01*
X101319Y134192D01*
X101241Y134114D01*
X101159Y134039D01*
X101076Y133966D01*
X100990Y133896D01*
X100901Y133829D01*
X100810Y133766D01*
X100717Y133705D01*
X100622Y133648D01*
X100526Y133595D01*
X100427Y133544D01*
X100326Y133497D01*
X100224Y133454D01*
X100121Y133414D01*
X100016Y133378D01*
X99910Y133346D01*
X99803Y133317D01*
X99695Y133292D01*
X99586Y133271D01*
X99477Y133254D01*
X99367Y133240D01*
X99256Y133231D01*
X99146Y133225D01*
X99035Y133223D01*
X95860Y133223D01*
D10*
X27940Y53340D02*
X27942Y53240D01*
X27948Y53141D01*
X27958Y53041D01*
X27971Y52943D01*
X27989Y52844D01*
X28010Y52747D01*
X28035Y52651D01*
X28064Y52555D01*
X28097Y52461D01*
X28133Y52368D01*
X28173Y52277D01*
X28217Y52187D01*
X28264Y52099D01*
X28314Y52013D01*
X28368Y51929D01*
X28425Y51847D01*
X28485Y51768D01*
X28549Y51690D01*
X28615Y51616D01*
X28684Y51544D01*
X28756Y51475D01*
X28830Y51409D01*
X28908Y51345D01*
X28987Y51285D01*
X29069Y51228D01*
X29153Y51174D01*
X29239Y51124D01*
X29327Y51077D01*
X29417Y51033D01*
X29508Y50993D01*
X29601Y50957D01*
X29695Y50924D01*
X29791Y50895D01*
X29887Y50870D01*
X29984Y50849D01*
X30083Y50831D01*
X30181Y50818D01*
X30281Y50808D01*
X30380Y50802D01*
X30480Y50800D01*
X45720Y50800D02*
X45820Y50802D01*
X45919Y50808D01*
X46019Y50818D01*
X46117Y50831D01*
X46216Y50849D01*
X46313Y50870D01*
X46409Y50895D01*
X46505Y50924D01*
X46599Y50957D01*
X46692Y50993D01*
X46783Y51033D01*
X46873Y51077D01*
X46961Y51124D01*
X47047Y51174D01*
X47131Y51228D01*
X47213Y51285D01*
X47292Y51345D01*
X47370Y51409D01*
X47444Y51475D01*
X47516Y51544D01*
X47585Y51616D01*
X47651Y51690D01*
X47715Y51768D01*
X47775Y51847D01*
X47832Y51929D01*
X47886Y52013D01*
X47936Y52099D01*
X47983Y52187D01*
X48027Y52277D01*
X48067Y52368D01*
X48103Y52461D01*
X48136Y52555D01*
X48165Y52651D01*
X48190Y52747D01*
X48211Y52844D01*
X48229Y52943D01*
X48242Y53041D01*
X48252Y53141D01*
X48258Y53240D01*
X48260Y53340D01*
X48260Y99060D02*
X48258Y99160D01*
X48252Y99259D01*
X48242Y99359D01*
X48229Y99457D01*
X48211Y99556D01*
X48190Y99653D01*
X48165Y99749D01*
X48136Y99845D01*
X48103Y99939D01*
X48067Y100032D01*
X48027Y100123D01*
X47983Y100213D01*
X47936Y100301D01*
X47886Y100387D01*
X47832Y100471D01*
X47775Y100553D01*
X47715Y100632D01*
X47651Y100710D01*
X47585Y100784D01*
X47516Y100856D01*
X47444Y100925D01*
X47370Y100991D01*
X47292Y101055D01*
X47213Y101115D01*
X47131Y101172D01*
X47047Y101226D01*
X46961Y101276D01*
X46873Y101323D01*
X46783Y101367D01*
X46692Y101407D01*
X46599Y101443D01*
X46505Y101476D01*
X46409Y101505D01*
X46313Y101530D01*
X46216Y101551D01*
X46117Y101569D01*
X46019Y101582D01*
X45919Y101592D01*
X45820Y101598D01*
X45720Y101600D01*
X30480Y101600D02*
X30380Y101598D01*
X30281Y101592D01*
X30181Y101582D01*
X30083Y101569D01*
X29984Y101551D01*
X29887Y101530D01*
X29791Y101505D01*
X29695Y101476D01*
X29601Y101443D01*
X29508Y101407D01*
X29417Y101367D01*
X29327Y101323D01*
X29239Y101276D01*
X29153Y101226D01*
X29069Y101172D01*
X28987Y101115D01*
X28908Y101055D01*
X28830Y100991D01*
X28756Y100925D01*
X28684Y100856D01*
X28615Y100784D01*
X28549Y100710D01*
X28485Y100632D01*
X28425Y100553D01*
X28368Y100471D01*
X28314Y100387D01*
X28264Y100301D01*
X28217Y100213D01*
X28173Y100123D01*
X28133Y100032D01*
X28097Y99939D01*
X28064Y99845D01*
X28035Y99749D01*
X28010Y99653D01*
X27989Y99556D01*
X27971Y99457D01*
X27958Y99359D01*
X27948Y99259D01*
X27942Y99160D01*
X27940Y99060D01*
X30480Y50800D02*
X45720Y50800D01*
X27940Y53340D02*
X27940Y57150D01*
X29210Y58420D01*
X48260Y57150D02*
X48260Y53340D01*
X48260Y57150D02*
X46990Y58420D01*
X29210Y93980D02*
X27940Y95250D01*
X29210Y93980D02*
X29210Y58420D01*
X46990Y93980D02*
X48260Y95250D01*
X46990Y93980D02*
X46990Y58420D01*
X27940Y95250D02*
X27940Y99060D01*
X48260Y99060D02*
X48260Y95250D01*
X45720Y101600D02*
X30480Y101600D01*
D13*
X38100Y103505D03*
X38100Y48895D03*
D14*
X24638Y51308D02*
X15748Y51308D01*
X15748Y53777D01*
X15750Y53875D01*
X15756Y53973D01*
X15766Y54071D01*
X15779Y54168D01*
X15797Y54265D01*
X15818Y54361D01*
X15843Y54455D01*
X15872Y54549D01*
X15904Y54642D01*
X15941Y54733D01*
X15980Y54823D01*
X16024Y54911D01*
X16071Y54997D01*
X16121Y55082D01*
X16174Y55164D01*
X16231Y55244D01*
X16291Y55322D01*
X16354Y55397D01*
X16420Y55470D01*
X16489Y55540D01*
X16560Y55607D01*
X16634Y55672D01*
X16711Y55733D01*
X16790Y55792D01*
X16871Y55847D01*
X16954Y55899D01*
X17040Y55947D01*
X17127Y55992D01*
X17216Y56034D01*
X17306Y56072D01*
X17398Y56106D01*
X17491Y56137D01*
X17586Y56164D01*
X17681Y56187D01*
X17778Y56207D01*
X17874Y56222D01*
X17972Y56234D01*
X18070Y56242D01*
X18168Y56246D01*
X18266Y56246D01*
X18364Y56242D01*
X18462Y56234D01*
X18560Y56222D01*
X18656Y56207D01*
X18753Y56187D01*
X18848Y56164D01*
X18943Y56137D01*
X19036Y56106D01*
X19128Y56072D01*
X19218Y56034D01*
X19307Y55992D01*
X19394Y55947D01*
X19480Y55899D01*
X19563Y55847D01*
X19644Y55792D01*
X19723Y55733D01*
X19800Y55672D01*
X19874Y55607D01*
X19945Y55540D01*
X20014Y55470D01*
X20080Y55397D01*
X20143Y55322D01*
X20203Y55244D01*
X20260Y55164D01*
X20313Y55082D01*
X20363Y54997D01*
X20410Y54911D01*
X20454Y54823D01*
X20493Y54733D01*
X20530Y54642D01*
X20562Y54549D01*
X20591Y54455D01*
X20616Y54361D01*
X20637Y54265D01*
X20655Y54168D01*
X20668Y54071D01*
X20678Y53973D01*
X20684Y53875D01*
X20686Y53777D01*
X20687Y53777D02*
X20687Y51308D01*
X20687Y54271D02*
X24638Y56247D01*
X17724Y60158D02*
X15748Y62627D01*
X24638Y62627D01*
X24638Y60158D02*
X24638Y65097D01*
M02*
